<svg id="Layer_1" data-name="Layer 1" xmlns="http://www.w3.org/2000/svg" viewBox="0 0 314.22 275.9"><defs><style>.cls-1{fill:#e65150;}.cls-2{fill:#fff;}.cls-3{fill:#9a2929;}.cls-4{fill:none;stroke:#fff;stroke-linecap:round;stroke-linejoin:round;stroke-width:6.29px;}</style></defs><g id="QG9qa5.tif"><path class="cls-1" d="M158.53,17.72c.83.2,1.67.38,2.5.61A14.56,14.56,0,0,1,172,30a14.55,14.55,0,0,1-2.75,12.13,15,15,0,0,1-7.6,5.32,1.06,1.06,0,0,0-.63.73c0,6.18,0,12.36,0,18.54a.85.85,0,0,0,.07.21A71.56,71.56,0,0,1,205,85.1l13.68-13.68a15.2,15.2,0,0,1,23.64-18.57,15.18,15.18,0,0,1-17.94,24.23l-13.7,13.7a71.91,71.91,0,0,1,18.17,44h18.93a47.51,47.51,0,0,1,3.17-5.52,14.31,14.31,0,0,1,9.71-5.65,14.76,14.76,0,0,1,8.89,1.4,14.39,14.39,0,0,1,7.91,9.75,15.19,15.19,0,0,1-21,17.63,14.4,14.4,0,0,1-7.84-8.64,1.55,1.55,0,0,0-1.79-1.29c-5.6,0-11.2,0-16.81,0h-1.18a71.89,71.89,0,0,1-18.26,44.07c.23.26.4.48.6.68q6.18,6.18,12.35,12.37a1,1,0,0,0,1.38.22c5.77-2.68,11.35-2.25,16.42,1.61a14.07,14.07,0,0,1,5.45,9.34,15,15,0,0,1-3.2,12.25,15.17,15.17,0,0,1-25.24-16.49c.25-.48.43-.84-.07-1.34q-6.45-6.39-12.85-12.83c-.09-.08-.2-.15-.38-.29a72,72,0,0,1-44,18.22v19.33a14.85,14.85,0,0,1,9.71,7.9,14.53,14.53,0,0,1,1.17,10.18,15.17,15.17,0,1,1-18.62-18.15V210.3a72.32,72.32,0,0,1-44-18.23c-.24.21-.44.37-.62.54-4.14,4.14-8.28,8.3-12.44,12.42a1.05,1.05,0,0,0-.25,1.48,13.91,13.91,0,0,1,1.62,7.84A15,15,0,0,1,94.12,223a14.64,14.64,0,0,1-8.75,5.16,14.88,14.88,0,0,1-11.93-2.66,14.2,14.2,0,0,1-5.74-8.84,15,15,0,0,1,1.84-11.3,15.13,15.13,0,0,1,18.73-6c.5.21,1,.5,1.46.67a.88.88,0,0,0,.75-.12c4.42-4.4,8.83-8.82,13.31-13.3a74.29,74.29,0,0,1-12.9-20.46,73.1,73.1,0,0,1-5.39-23.65h-.93c-5.82,0-11.65,0-17.48,0a1,1,0,0,0-1.2.87,14.34,14.34,0,0,1-7.45,8.76,15.27,15.27,0,0,1-20.39-6.48,12.41,12.41,0,0,1-1.59-5.73,3.26,3.26,0,0,0-.22-.84v-.77c.14-.88.27-1.77.43-2.65a14.38,14.38,0,0,1,5.21-8.76,14.85,14.85,0,0,1,11.75-3.26A14.54,14.54,0,0,1,64,130.05a40.16,40.16,0,0,1,2.42,4.71H85.48a72.05,72.05,0,0,1,18.17-44L90,77.12A15.2,15.2,0,1,1,92,52.07a14.6,14.6,0,0,1,5.53,10.12,15.85,15.85,0,0,1-1.92,9.34l13.63,13.64a71.71,71.71,0,0,1,44.1-18.25V48.46c0-.43.1-.85-.55-1a14.76,14.76,0,0,1-7.21-4.71,15,15,0,0,1-3.6-10,14.33,14.33,0,0,1,1.86-7,14.7,14.7,0,0,1,9.37-7.38l2.41-.62Z"/><path class="cls-1" d="M75,213.32a7.46,7.46,0,1,0,7.57-7.47A7.45,7.45,0,0,0,75,213.32Z"/><path class="cls-1" d="M239.32,213.25a7.47,7.47,0,1,0-7.52,7.55A7.43,7.43,0,0,0,239.32,213.25Z"/><path class="cls-1" d="M270.23,138.66a7.46,7.46,0,1,0-14.91-.13,7.53,7.53,0,0,0,7.46,7.54C266.75,146.2,270.51,142.37,270.23,138.66Z"/><path class="cls-1" d="M157.09,251.73a7.45,7.45,0,0,0,7.58-7.45,7.5,7.5,0,1,0-15,0A7.47,7.47,0,0,0,157.09,251.73Z"/><path class="cls-1" d="M239.32,63.87a7.43,7.43,0,0,0-7.44-7.48,7.5,7.5,0,0,0,0,15A7.41,7.41,0,0,0,239.32,63.87Z"/><path class="cls-1" d="M51.49,146.05a7.47,7.47,0,1,0,0-14.93,7.53,7.53,0,0,0-7.42,7.27C43.91,142.5,47.73,146.28,51.49,146.05Z"/><path class="cls-1" d="M157.17,40.36a7.41,7.41,0,0,0,7.5-7.4,7.5,7.5,0,1,0-7.5,7.4Z"/><path class="cls-1" d="M75,63.94a7.41,7.41,0,0,0,7.45,7.45,7.5,7.5,0,0,0,0-15A7.39,7.39,0,0,0,75,63.94Z"/><path class="cls-2" d="M75,213.32a7.46,7.46,0,1,1,7.49,7.48A7.44,7.44,0,0,1,75,213.32Z"/><path class="cls-2" d="M239.32,213.25a7.43,7.43,0,0,1-7.52,7.55,7.48,7.48,0,1,1,7.52-7.55Z"/><path class="cls-2" d="M270.23,138.66c.28,3.71-3.48,7.54-7.45,7.41a7.49,7.49,0,1,1,.05-15A7.44,7.44,0,0,1,270.23,138.66Z"/><path class="cls-2" d="M157.09,251.73a7.47,7.47,0,0,1-7.42-7.41,7.5,7.5,0,1,1,15,0A7.45,7.45,0,0,1,157.09,251.73Z"/><path class="cls-2" d="M239.32,63.87a7.41,7.41,0,0,1-7.48,7.52,7.5,7.5,0,0,1,0-15A7.43,7.43,0,0,1,239.32,63.87Z"/><path class="cls-2" d="M51.49,146.05c-3.76.23-7.58-3.55-7.42-7.66a7.53,7.53,0,0,1,7.42-7.27,7.47,7.47,0,1,1,0,14.93Z"/><path class="cls-2" d="M157.17,40.36a7.34,7.34,0,0,1-7.5-7.36,7.5,7.5,0,1,1,15,0A7.41,7.41,0,0,1,157.17,40.36Z"/><path class="cls-2" d="M75,63.94a7.39,7.39,0,0,1,7.45-7.54,7.5,7.5,0,0,1,0,15A7.41,7.41,0,0,1,75,63.94Z"/><path class="cls-3" d="M204.43,142.23c-6.68-2.66-14.12,2-17,9.58-3.09,8.14-.19,15.82,5.48,18.42,7,3.19,15-2.13,17.46-9.57C213.51,152.71,210.42,144.62,204.43,142.23Z"/><path class="cls-3" d="M113.14,155.25c-5.37,2.7-6.63,9.89-3.48,15.91,3.35,6.42,9.75,8.86,14.52,6.75,5.86-2.58,7-10.5,3.74-16.17C124.71,155.37,118,152.83,113.14,155.25Z"/><path class="cls-3" d="M130.16,99.3c-4.9-3.84-12.52-1.38-17.14,4.76-4.94,6.54-4.68,14-.61,17.58,5,4.37,13.26,1.4,17.5-4.66C134.85,110.6,134.55,102.74,130.16,99.3Z"/><path class="cls-3" d="M154.19,85.3c-3.28,4.84-.78,11.63,4.91,15.34,6.07,4,12.78,3.07,15.84-1,3.75-5,.77-12.31-4.84-15.68C164.19,80,157.12,81,154.19,85.3Z"/><path class="cls-3" d="M190.8,99.42c-4.39,3.1-4.5,9.68-.88,14.66,3.88,5.31,9.9,6.67,13.84,4.18,4.84-3.05,4.73-10.27,1.06-14.92C201.09,98.06,194.74,96.65,190.8,99.42Z"/><path class="cls-3" d="M167,174.59c-9.15,1-15.32,7.1-14.63,13.24.74,6.56,8.17,10.35,16.13,9.7,9.75-.81,16.18-7.56,15.13-13.42C183.07,177.64,175.21,173.66,167,174.59Z"/><line class="cls-4" x1="157.17" y1="123.4" x2="157.17" y2="153.74"/><line class="cls-4" x1="142" y1="138.57" x2="172.34" y2="138.57"/></g></svg>